ISO-10303-21;
HEADER;
FILE_DESCRIPTION (( 'STEP AP214' ),
    '1' );
FILE_NAME ('°«¸ÖÖé¹Ì¼þx3.STEP',
    '2025-05-19T16:47:14',
    ( '' ),
    ( '' ),
    'SwSTEP 2.0',
    'SolidWorks 2023',
    '' );
FILE_SCHEMA (( 'AUTOMOTIVE_DESIGN' ));
ENDSEC;

DATA;
#1 = CYLINDRICAL_SURFACE ( 'NONE', #388, 1.500000242002742734 ) ;
#2 = FACE_BOUND ( 'NONE', #372, .T. ) ;
#3 = ORIENTED_EDGE ( 'NONE', *, *, #193, .T. ) ;
#4 = EDGE_CURVE ( 'NONE', #369, #256, #335, .T. ) ;
#5 = AXIS2_PLACEMENT_3D ( 'NONE', #325, #416, #29 ) ;
#6 = DIRECTION ( 'NONE',  ( -0.5255620804211021957, -0.8507552524806666350, 0.000000000000000000 ) ) ;
#7 = CARTESIAN_POINT ( 'NONE',  ( 58.89473461666514709, -60.10805099236209514, -25.31723889060326727 ) ) ;
#8 = DIRECTION ( 'NONE',  ( 0.4383703048312268535, 0.000000000000000000, 0.8987944569489607627 ) ) ;
#9 = ORIENTED_EDGE ( 'NONE', *, *, #404, .T. ) ;
#10 = AXIS2_PLACEMENT_3D ( 'NONE', #167, #266, #301 ) ;
#11 = FACE_OUTER_BOUND ( 'NONE', #380, .T. ) ;
#12 = ORIENTED_EDGE ( 'NONE', *, *, #353, .T. ) ;
#13 = CARTESIAN_POINT ( 'NONE',  ( 56.21191594705160099, -59.07161706947240276, -28.47770561734989769 ) ) ;
#14 = ORIENTED_EDGE ( 'NONE', *, *, #154, .F. ) ;
#15 = LINE ( 'NONE', #377, #135 ) ;
#16 = ORIENTED_EDGE ( 'NONE', *, *, #353, .F. ) ;
#17 = DIRECTION ( 'NONE',  ( -0.7857938262876820179, 0.4854303616368789709, 0.3832563457651460004 ) ) ;
#18 = ORIENTED_EDGE ( 'NONE', *, *, #104, .F. ) ;
#19 = ORIENTED_EDGE ( 'NONE', *, *, #67, .T. ) ;
#20 = MANIFOLD_SOLID_BREP ( '°«¸ÖÖé¹Ì¼þx3.step<1>', #39 ) ;
#21 = FILL_AREA_STYLE_COLOUR ( '', #189 ) ;
#22 = SPHERICAL_SURFACE ( 'NONE', #370, 1.584999994892789976 ) ;
#23 = CARTESIAN_POINT ( 'NONE',  ( 54.84136151932079883, -62.21477128758319708, -30.95952349038389784 ) ) ;
#24 = ADVANCED_FACE ( 'NONE', ( #60 ), #208, .T. ) ;
#25 = DIRECTION ( 'NONE',  ( 0.5255620109398700945, 0.8507552954033490433, 0.000000000000000000 ) ) ;
#26 = CARTESIAN_POINT ( 'NONE',  ( 57.16188658945598888, -57.41253338792530769, -32.28423252627045059 ) ) ;
#27 = CARTESIAN_POINT ( 'NONE',  ( 59.35838116789250307, -61.00992493193129462, -30.00827380405509714 ) ) ;
#28 = CARTESIAN_POINT ( 'NONE',  ( 56.21521791595020545, -59.06820856087539795, -28.47525275981839954 ) ) ;
#29 = DIRECTION ( 'NONE',  ( 0.5255620109398700945, 0.8507552954033490433, 0.000000000000000000 ) ) ;
#30 = AXIS2_PLACEMENT_3D ( 'NONE', #137, #140, #366 ) ;
#31 = CARTESIAN_POINT ( 'NONE',  ( 59.58829212180975077, -56.45024940641101807, -28.52818834737645659 ) ) ;
#32 = DIRECTION ( 'NONE',  ( 0.7857931116106525726, -0.4854311052614386779, -0.3832568692012008338 ) ) ;
#33 = DIRECTION ( 'NONE',  ( 0.7857931185359472437, -0.4854311067413802361, -0.3832568531277551482 ) ) ;
#34 = CARTESIAN_POINT ( 'NONE',  ( 58.34436713832360510, -60.99895971095111236, -25.31723888041395654 ) ) ;
#35 = DIRECTION ( 'NONE',  ( -0.5255620804211009744, -0.8507552524806674121, 0.000000000000000000 ) ) ;
#36 = EDGE_LOOP ( 'NONE', ( #282, #203, #157, #119, #84 ) ) ;
#37 = CARTESIAN_POINT ( 'NONE',  ( 59.41756768554251522, -56.34478314392429610, -29.01180566598505450 ) ) ;
#38 = VERTEX_POINT ( 'NONE', #385 ) ;
#39 = CLOSED_SHELL ( 'NONE', ( #230, #403, #373, #123, #357, #337, #299, #314, #178, #24, #128, #223 ) ) ;
#40 = CARTESIAN_POINT ( 'NONE',  ( 60.14672441290565530, -59.73379184559174604, -30.00827380268647460 ) ) ;
#41 = ORIENTED_EDGE ( 'NONE', *, *, #422, .T. ) ;
#42 = DIRECTION ( 'NONE',  ( 0.7857949509888779716, -0.4854291543077999815, -0.3832555689724559955 ) ) ;
#43 = VERTEX_POINT ( 'NONE', #122 ) ;
#44 = AXIS2_PLACEMENT_3D ( 'NONE', #79, #42, #408 ) ;
#45 = DIRECTION ( 'NONE',  ( -0.8386155319843683342, 0.3893586011207014752, 0.3809512688624431820 ) ) ;
#46 = CIRCLE ( 'NONE', #285, 1.584999994892791531 ) ;
#47 = EDGE_LOOP ( 'NONE', ( #409, #331, #348, #41 ) ) ;
#48 = AXIS2_PLACEMENT_3D ( 'NONE', #28, #164, #292 ) ;
#49 = EDGE_LOOP ( 'NONE', ( #352, #19 ) ) ;
#50 = CARTESIAN_POINT ( 'NONE',  ( 55.21307458876305674, -63.15083471546741123, -29.01180950446419970 ) ) ;
#51 = EDGE_CURVE ( 'NONE', #277, #307, #96, .T. ) ;
#52 = CARTESIAN_POINT ( 'NONE',  ( 57.31532593376410034, -59.74780818995800047, -29.01180950446419970 ) ) ;
#53 = CONICAL_SURFACE ( 'NONE', #296, 4.000006281354990811, 0.6202494037147093797 ) ;
#54 = VERTEX_POINT ( 'NONE', #94 ) ;
#55 = AXIS2_PLACEMENT_3D ( 'NONE', #255, #414, #355 ) ;
#56 = PRODUCT_DEFINITION ( 'æœ', '', #225, #407 ) ;
#57 =( LENGTH_UNIT ( ) NAMED_UNIT ( * ) SI_UNIT ( .MILLI., .METRE. ) );
#58 = PRESENTATION_LAYER_ASSIGNMENT (  '', '', ( #421 ) ) ;
#59 = EDGE_CURVE ( 'NONE', #307, #364, #175, .T. ) ;
#60 = FACE_OUTER_BOUND ( 'NONE', #313, .T. ) ;
#61 = CARTESIAN_POINT ( 'NONE',  ( 59.35838116570830181, -61.00992495303449914, -30.00827378180410321 ) ) ;
#62 = CARTESIAN_POINT ( 'NONE',  ( 55.21307078277049385, -63.15082462739740521, -29.01180604128380125 ) ) ;
#63 = CARTESIAN_POINT ( 'NONE',  ( 56.13523880479661443, -63.12708360446600864, -27.15115184636094625 ) ) ;
#64 = CIRCLE ( 'NONE', #10, 1.500000242002739181 ) ;
#65 = FACE_OUTER_BOUND ( 'NONE', #148, .T. ) ;
#66 = ORIENTED_EDGE ( 'NONE', *, *, #51, .T. ) ;
#67 = EDGE_CURVE ( 'NONE', #277, #38, #236, .T. ) ;
#68 = DIRECTION ( 'NONE',  ( 0.000000000000000000, 0.6196660516098119187, -0.7848655837035446448 ) ) ;
#69 = EDGE_LOOP ( 'NONE', ( #376, #243, #173, #247 ) ) ;
#70 = APPLICATION_CONTEXT ( 'automotive_design' ) ;
#71 = CARTESIAN_POINT ( 'NONE',  ( 59.79792946139708221, -57.52166235169062958, -26.74132193272375346 ) ) ;
#72 = EDGE_CURVE ( 'NONE', #121, #411, #293, .T. ) ;
#73 = CIRCLE ( 'NONE', #130, 1.584999994892791531 ) ;
#74 = VECTOR ( 'NONE', #132, 999.9999999999998863 ) ;
#75 = EDGE_CURVE ( 'NONE', #364, #245, #338, .T. ) ;
#76 = EDGE_CURVE ( 'NONE', #284, #116, #361, .T. ) ;
#77 = FACE_OUTER_BOUND ( 'NONE', #49, .T. ) ;
#78 = ORIENTED_EDGE ( 'NONE', *, *, #138, .T. ) ;
#79 = CARTESIAN_POINT ( 'NONE',  ( 56.95591246126100771, -59.52577411535430230, -28.83650986199709720 ) ) ;
#80 = ORIENTED_EDGE ( 'NONE', *, *, #219, .F. ) ;
#81 = VECTOR ( 'NONE', #149, 1000.000000000000114 ) ;
#82 = AXIS2_PLACEMENT_3D ( 'NONE', #118, #246, #249 ) ;
#83 = CARTESIAN_POINT ( 'NONE',  ( 56.95591246126100771, -59.52577411535430230, -28.83650986199709720 ) ) ;
#84 = ORIENTED_EDGE ( 'NONE', *, *, #216, .F. ) ;
#85 = DIRECTION ( 'NONE',  ( -0.7857930167334900018, 0.4854312375995529782, 0.3832568961094470206 ) ) ;
#86 = ORIENTED_EDGE ( 'NONE', *, *, #418, .F. ) ;
#87 = CYLINDRICAL_SURFACE ( 'NONE', #109, 4.000000014219449618 ) ;
#88 = ORIENTED_EDGE ( 'NONE', *, *, #154, .T. ) ;
#89 = UNCERTAINTY_MEASURE_WITH_UNIT (LENGTH_MEASURE( 1.000000000000000082E-05 ), #359, 'distance_accuracy_value', 'NONE');
#90 = CIRCLE ( 'NONE', #194, 1.500000242002752282 ) ;
#91 = CARTESIAN_POINT ( 'NONE',  ( 55.69662421937990615, -59.46852454275958877, -32.68435739470616852 ) ) ;
#92 = EDGE_CURVE ( 'NONE', #54, #186, #158, .T. ) ;
#93 = SHAPE_DEFINITION_REPRESENTATION ( #326, #272 ) ;
#94 = CARTESIAN_POINT ( 'NONE',  ( 55.85742922717107461, -60.70451685312938395, -28.83380364131563312 ) ) ;
#95 = CARTESIAN_POINT ( 'NONE',  ( 56.69703435363839361, -59.36585247985200198, -28.71024834544450144 ) ) ;
#96 = LINE ( 'NONE', #50, #74 ) ;
#97 = APPLICATION_PROTOCOL_DEFINITION ( 'draft international standard', 'automotive_design', 1998, #248 ) ;
#98 = CARTESIAN_POINT ( 'NONE',  ( 59.09956348005643889, -56.23093866731414181, -29.80800834915662989 ) ) ;
#99 = CARTESIAN_POINT ( 'NONE',  ( 56.21521911170759722, -59.06820729697039951, -28.47525190900169889 ) ) ;
#100 = CARTESIAN_POINT ( 'NONE',  ( 59.41756768554251522, -56.34478314392429610, -29.01180566598505450 ) ) ;
#101 = AXIS2_PLACEMENT_3D ( 'NONE', #351, #180, #182 ) ;
#102 = DIRECTION ( 'NONE',  ( -0.5255620804211009744, -0.8507552524806674121, 0.000000000000000000 ) ) ;
#103 = PRODUCT ( '\X2\77ee94a273e056fa4ef6\X0\x3', '\X2\77ee94a273e056fa4ef6\X0\x3', '', ( #384 ) ) ;
#104 = EDGE_CURVE ( 'NONE', #179, #43, #365, .T. ) ;
#105 = DIRECTION ( 'NONE',  ( -0.8481729996634360669, 0.5274773473677384361, 0.04868480929225309922 ) ) ;
#106 = CARTESIAN_POINT ( 'NONE',  ( 58.57157334736228194, -62.28700654122520319, -30.00902268190460376 ) ) ;
#107 = EDGE_CURVE ( 'NONE', #284, #211, #166, .T. ) ;
#108 = CARTESIAN_POINT ( 'NONE',  ( 56.69703435363839361, -59.36585247985200198, -28.71024834544450144 ) ) ;
#109 = AXIS2_PLACEMENT_3D ( 'NONE', #274, #169, #279 ) ;
#110 = ORIENTED_EDGE ( 'NONE', *, *, #76, .F. ) ;
#111 = LINE ( 'NONE', #379, #231 ) ;
#112 = ORIENTED_EDGE ( 'NONE', *, *, #4, .T. ) ;
#113 = DIRECTION ( 'NONE',  ( 0.7857931185359472437, -0.4854311067413802361, -0.3832568531277551482 ) ) ;
#114 = VERTEX_POINT ( 'NONE', #133 ) ;
#115 = FACE_BOUND ( 'NONE', #298, .T. ) ;
#116 = VERTEX_POINT ( 'NONE', #265 ) ;
#117 = AXIS2_PLACEMENT_3D ( 'NONE', #152, #17, #410 ) ;
#118 = CARTESIAN_POINT ( 'NONE',  ( 57.31531935119270571, -59.74780422720129280, -29.01180607752090168 ) ) ;
#119 = ORIENTED_EDGE ( 'NONE', *, *, #75, .T. ) ;
#120 = FACE_OUTER_BOUND ( 'NONE', #209, .T. ) ;
#121 = VERTEX_POINT ( 'NONE', #134 ) ;
#122 = CARTESIAN_POINT ( 'NONE',  ( 58.57003792287940769, -62.28605801827081478, -30.00827380542362732 ) ) ;
#123 = ADVANCED_FACE ( 'NONE', ( #65 ), #336, .F. ) ;
#124 = AXIS2_PLACEMENT_3D ( 'NONE', #263, #300, #102 ) ;
#125 = CARTESIAN_POINT ( 'NONE',  ( 56.21521911170759722, -59.97390876368667278, -27.32809545515253191 ) ) ;
#126 = DIRECTION ( 'NONE',  ( 0.000000000000000000, 0.6196660516098119187, -0.7848655837035446448 ) ) ;
#127 =( NAMED_UNIT ( * ) PLANE_ANGLE_UNIT ( ) SI_UNIT ( $, .RADIAN. ) );
#128 = ADVANCED_FACE ( 'NONE', ( #297, #2 ), #165, .F. ) ;
#129 = CARTESIAN_POINT ( 'NONE',  ( 58.45614790480064471, -56.39464616232566385, -30.91985458656632701 ) ) ;
#130 = AXIS2_PLACEMENT_3D ( 'NONE', #147, #399, #204 ) ;
#131 = DIRECTION ( 'NONE',  ( -0.7857930167334900018, 0.4854312375995530338, 0.3832568961094470206 ) ) ;
#132 = DIRECTION ( 'NONE',  ( 0.3339495878739268120, -0.8895029485200685038, -0.3118688463648442433 ) ) ;
#133 = CARTESIAN_POINT ( 'NONE',  ( 56.00065285764598855, -60.39478429160951833, -29.69441076436728721 ) ) ;
#134 = CARTESIAN_POINT ( 'NONE',  ( 57.25613275611816277, -64.41294592536651464, -30.00827403449575925 ) ) ;
#135 = VECTOR ( 'NONE', #85, 1000.000000000000114 ) ;
#136 = AXIS2_PLACEMENT_3D ( 'NONE', #99, #188, #126 ) ;
#137 = CARTESIAN_POINT ( 'NONE',  ( 56.69703435363839361, -59.36585247985200198, -28.71024834544450144 ) ) ;
#138 = EDGE_CURVE ( 'NONE', #211, #43, #64, .T. ) ;
#139 = ORIENTED_EDGE ( 'NONE', *, *, #185, .F. ) ;
#140 = DIRECTION ( 'NONE',  ( -0.8481729996634361779, 0.5274773473677385471, 0.04868480929225253717 ) ) ;
#141 = DIRECTION ( 'NONE',  ( -0.7235252841164837578, 0.5756624827068862471, 0.3809512688624431820 ) ) ;
#142 = EDGE_CURVE ( 'NONE', #245, #307, #239, .T. ) ;
#143 = CARTESIAN_POINT ( 'NONE',  ( 57.53663948010571971, -58.02718810657462001, -28.58669304957336621 ) ) ;
#144 = AXIS2_PLACEMENT_3D ( 'NONE', #235, #295, #68 ) ;
#145 = CARTESIAN_POINT ( 'NONE',  ( 58.10366259901184804, -58.47167114259516296, -29.01180607752087681 ) ) ;
#146 = ORIENTED_EDGE ( 'NONE', *, *, #72, .T. ) ;
#147 = CARTESIAN_POINT ( 'NONE',  ( 56.69703435363839361, -59.36585247985200198, -28.71024834544450144 ) ) ;
#148 = EDGE_LOOP ( 'NONE', ( #181, #350, #155, #18 ) ) ;
#149 = DIRECTION ( 'NONE',  ( -0.7857930167334900018, 0.4854312375995529782, 0.3832568961094470206 ) ) ;
#150 = ORIENTED_EDGE ( 'NONE', *, *, #75, .F. ) ;
#151 = AXIS2_PLACEMENT_3D ( 'NONE', #13, #405, #8 ) ;
#152 = CARTESIAN_POINT ( 'NONE',  ( 56.21521791595020545, -59.06820856087539795, -28.47525275981839954 ) ) ;
#153 = ORIENTED_EDGE ( 'NONE', *, *, #161, .T. ) ;
#154 = EDGE_CURVE ( 'NONE', #256, #369, #327, .T. ) ;
#155 = ORIENTED_EDGE ( 'NONE', *, *, #404, .F. ) ;
#156 = DIRECTION ( 'NONE',  ( 0.5255622300529084745, 0.8507551600441889406, 0.000000000000000000 ) ) ;
#157 = ORIENTED_EDGE ( 'NONE', *, *, #59, .T. ) ;
#158 = CIRCLE ( 'NONE', #30, 1.584999994892791531 ) ;
#159 = DIRECTION ( 'NONE',  ( -0.8481729996634360669, 0.5274773473677384361, 0.04868480929225309922 ) ) ;
#160 = CARTESIAN_POINT ( 'NONE',  ( 55.18011321909589384, -60.59687815562103452, -32.31419484531078012 ) ) ;
#161 = EDGE_CURVE ( 'NONE', #411, #121, #382, .T. ) ;
#162 = CARTESIAN_POINT ( 'NONE',  ( 57.69453292196475047, -56.90576905580277867, -31.83401092315776282 ) ) ;
#163 = DIRECTION ( 'NONE',  ( 0.7857932009283059571, -0.4854310717713030132, -0.3832567284912439809 ) ) ;
#164 = DIRECTION ( 'NONE',  ( -0.7857938262876820179, 0.4854303616368789709, 0.3832563457651460004 ) ) ;
#165 = SPHERICAL_SURFACE ( 'NONE', #174, 1.584999994892789976 ) ;
#166 = LINE ( 'NONE', #362, #269 ) ;
#167 = CARTESIAN_POINT ( 'NONE',  ( 59.35838116789250307, -61.00992493193129462, -30.00827380405509714 ) ) ;
#168 = DIRECTION ( 'NONE',  ( 0.7857931116106526837, -0.4854311052614387334, -0.3832568692012008338 ) ) ;
#169 = DIRECTION ( 'NONE',  ( -0.7857930167334900018, 0.4854312375995530338, 0.3832568961094470206 ) ) ;
#170 = ORIENTED_EDGE ( 'NONE', *, *, #51, .F. ) ;
#171 = EDGE_CURVE ( 'NONE', #284, #179, #90, .T. ) ;
#172 = CARTESIAN_POINT ( 'NONE',  ( 55.21307078277049385, -63.15082462739740521, -29.01180604128380125 ) ) ;
#173 = ORIENTED_EDGE ( 'NONE', *, *, #104, .T. ) ;
#174 = AXIS2_PLACEMENT_3D ( 'NONE', #108, #105, #397 ) ;
#175 = B_SPLINE_CURVE_WITH_KNOTS ( 'NONE', 3,
 ( #62, #221, #356, #321 ),
 .UNSPECIFIED., .F., .F.,
 ( 4, 4 ),
 ( 0.000000000000000000, 1.000000000000000000 ),
 .UNSPECIFIED. ) ;
#176 = UNCERTAINTY_MEASURE_WITH_UNIT (LENGTH_MEASURE( 1.000000000000000082E-05 ), #57, 'distance_accuracy_value', 'NONE');
#177 = DIRECTION ( 'NONE',  ( 0.9449029453592791006, 0.09947987996786218645, -0.3118688463648444098 ) ) ;
#178 = ADVANCED_FACE ( 'NONE', ( #330 ), #1, .F. ) ;
#179 = VERTEX_POINT ( 'NONE', #392 ) ;
#180 = DIRECTION ( 'NONE',  ( -0.7857949509888779716, 0.4854291543077999815, 0.3832555689724559955 ) ) ;
#181 = ORIENTED_EDGE ( 'NONE', *, *, #185, .T. ) ;
#182 = DIRECTION ( 'NONE',  ( -0.5255596611909402194, -0.8507567469781619485, 0.000000000000000000 ) ) ;
#183 = ORIENTED_EDGE ( 'NONE', *, *, #219, .T. ) ;
#184 = CIRCLE ( 'NONE', #419, 1.550384500450595171 ) ;
#185 = EDGE_CURVE ( 'NONE', #179, #284, #394, .T. ) ;
#186 = VERTEX_POINT ( 'NONE', #143 ) ;
#187 = DIRECTION ( 'NONE',  ( 0.8481729996634361779, -0.5274773473677385471, -0.04868480929225266207 ) ) ;
#188 = DIRECTION ( 'NONE',  ( 0.7857938262876820179, -0.4854303616368789709, -0.3832563457651460004 ) ) ;
#189 = COLOUR_RGB ( '',0.7921568627450980005, 0.8196078431372548767, 0.9333333333333333481 ) ;
#190 = APPLICATION_PROTOCOL_DEFINITION ( 'draft international standard', 'automotive_design', 1998, #70 ) ;
#191 = SURFACE_SIDE_STYLE ('',( #261 ) ) ;
#192 = ORIENTED_EDGE ( 'NONE', *, *, #59, .F. ) ;
#193 = EDGE_CURVE ( 'NONE', #179, #315, #214, .T. ) ;
#194 = AXIS2_PLACEMENT_3D ( 'NONE', #328, #195, #6 ) ;
#195 = DIRECTION ( 'NONE',  ( -0.7857931116106526837, 0.4854311052614387334, 0.3832568692012008338 ) ) ;
#196 = ORIENTED_EDGE ( 'NONE', *, *, #278, .F. ) ;
#197 = CARTESIAN_POINT ( 'NONE',  ( 57.76945727431728983, -58.20575981287059619, -28.83583868474460132 ) ) ;
#198 = ORIENTED_EDGE ( 'NONE', *, *, #320, .F. ) ;
#199 = CARTESIAN_POINT ( 'NONE',  ( 55.21307078277049385, -63.15082462739740521, -29.01180604128380125 ) ) ;
#200 = ORIENTED_EDGE ( 'NONE', *, *, #233, .T. ) ;
#201 = CARTESIAN_POINT ( 'NONE',  ( 59.13586443729965936, -59.64180165058760963, -25.41339858866992429 ) ) ;
#202 = CARTESIAN_POINT ( 'NONE',  ( 56.43573195372488982, -62.96422788898876632, -26.74132186939464262 ) ) ;
#203 = ORIENTED_EDGE ( 'NONE', *, *, #273, .T. ) ;
#204 = DIRECTION ( 'NONE',  ( 0.5281035770247517469, 0.8491799643972189893, 0.000000000000000000 ) ) ;
#205 = EDGE_LOOP ( 'NONE', ( #198, #275, #309, #200, #346, #12 ) ) ;
#206 = FACE_OUTER_BOUND ( 'NONE', #406, .T. ) ;
#207 = AXIS2_PLACEMENT_3D ( 'NONE', #312, #349, #244 ) ;
#208 = CONICAL_SURFACE ( 'NONE', #5, 4.000006281354990811, 0.6202494037147093797 ) ;
#209 = EDGE_LOOP ( 'NONE', ( #420, #238, #280, #340 ) ) ;
#210 = CARTESIAN_POINT ( 'NONE',  ( 56.14109290848843870, -60.84477418952307914, -28.83650986199714694 ) ) ;
#211 = VERTEX_POINT ( 'NONE', #40 ) ;
#212 = DIRECTION ( 'NONE',  ( -0.5255596611909402194, -0.8507567469781619485, 0.000000000000000000 ) ) ;
#213 = EDGE_LOOP ( 'NONE', ( #367, #343, #215, #378, #16, #400 ) ) ;
#214 = LINE ( 'NONE', #341, #304 ) ;
#215 = ORIENTED_EDGE ( 'NONE', *, *, #233, .F. ) ;
#216 = EDGE_CURVE ( 'NONE', #411, #245, #15, .T. ) ;
#217 = VECTOR ( 'NONE', #141, 1000.000000000000000 ) ;
#218 = CARTESIAN_POINT ( 'NONE',  ( 56.13641438866972777, -58.72792608103147671, -32.72069224351515970 ) ) ;
#219 = EDGE_CURVE ( 'NONE', #38, #245, #111, .T. ) ;
#220 = FACE_OUTER_BOUND ( 'NONE', #268, .T. ) ;
#221 = CARTESIAN_POINT ( 'NONE',  ( 54.97166480638567521, -63.00169375020080054, -29.69565006993326506 ) ) ;
#222 =( NAMED_UNIT ( * ) SI_UNIT ( $, .STERADIAN. ) SOLID_ANGLE_UNIT ( ) );
#223 = ADVANCED_FACE ( 'NONE', ( #206 ), #334, .F. ) ;
#224 = CARTESIAN_POINT ( 'NONE',  ( 55.50134504440285355, -59.85016939561189986, -32.60134957344800455 ) ) ;
#225 = PRODUCT_DEFINITION_FORMATION_WITH_SPECIFIED_SOURCE ( 'ä»', '', #103, .NOT_KNOWN. ) ;
#226 = FACE_OUTER_BOUND ( 'NONE', #36, .T. ) ;
#227 = CARTESIAN_POINT ( 'NONE',  ( 59.27702096234836660, -56.25795863651535456, -29.40994326462722697 ) ) ;
#228 = CIRCLE ( 'NONE', #342, 1.500000242002739181 ) ;
#229 = CARTESIAN_POINT ( 'NONE',  ( 59.41756768554251522, -56.34478314392429610, -29.01180566598505450 ) ) ;
#230 = ADVANCED_FACE ( 'NONE', ( #368 ), #264, .F. ) ;
#231 = VECTOR ( 'NONE', #177, 1000.000000000000114 ) ;
#232 = CARTESIAN_POINT ( 'NONE',  ( 58.03534602671144427, -61.42326855323614865, -25.41339856829483779 ) ) ;
#233 = EDGE_CURVE ( 'NONE', #317, #116, #344, .T. ) ;
#234 = CARTESIAN_POINT ( 'NONE',  ( 57.39620670070553388, -62.16564065579958509, -25.78354352552403128 ) ) ;
#235 = CARTESIAN_POINT ( 'NONE',  ( 56.21521911170759722, -59.06820729697039951, -28.47525190900169889 ) ) ;
#236 = CIRCLE ( 'NONE', #48, 3.000009912716181226 ) ;
#237 = CARTESIAN_POINT ( 'NONE',  ( 55.60916646861016233, -63.27314374454323342, -28.04476084287670545 ) ) ;
#238 = ORIENTED_EDGE ( 'NONE', *, *, #161, .F. ) ;
#239 = B_SPLINE_CURVE_WITH_KNOTS ( 'NONE', 3,
 ( #100, #31, #294, #262, #71, #395, #393, #201, #7, #34, #232, #234, #267, #202, #63, #237, #363, #199 ),
 .UNSPECIFIED., .F., .F.,
 ( 4, 2, 2, 2, 2, 2, 2, 2, 4 ),
 ( 0.4515281978858319833, 0.5200871731501029993, 0.5886461484143740153, 0.6572051236786449202, 0.7257640989429159362, 0.7943230742071869521, 0.8628820494714579681, 0.9314410247357289840, 1.000000000000000000 ),
 .UNSPECIFIED. ) ;
#240 = DIRECTION ( 'NONE',  ( -0.7857949509888779716, 0.4854291543077999815, 0.3832555689724559955 ) ) ;
#241 = ORIENTED_EDGE ( 'NONE', *, *, #4, .F. ) ;
#242 = DIRECTION ( 'NONE',  ( 0.000000000000000000, 0.6196659710223252349, -0.7848656473288653235 ) ) ;
#243 = ORIENTED_EDGE ( 'NONE', *, *, #171, .T. ) ;
#244 = DIRECTION ( 'NONE',  ( -0.5255596611909375548, -0.8507567469781636138, 0.000000000000000000 ) ) ;
#245 = VERTEX_POINT ( 'NONE', #37 ) ;
#246 = DIRECTION ( 'NONE',  ( -0.7857931116106526837, 0.4854311052614387334, 0.3832568692012008338 ) ) ;
#247 = ORIENTED_EDGE ( 'NONE', *, *, #138, .F. ) ;
#248 = APPLICATION_CONTEXT ( 'automotive_design' ) ;
#249 = DIRECTION ( 'NONE',  ( -0.5255620804211021957, -0.8507552524806666350, 0.000000000000000000 ) ) ;
#250 = EDGE_LOOP ( 'NONE', ( #88, #112 ) ) ;
#251 = DIRECTION ( 'NONE',  ( -0.7857931185359475768, 0.4854311067413797920, 0.3832568531277548152 ) ) ;
#252 = CARTESIAN_POINT ( 'NONE',  ( 54.88482760329537058, -61.63726053398877980, -31.60187699917044313 ) ) ;
#253 = AXIS2_PLACEMENT_3D ( 'NONE', #333, #33, #339 ) ;
#254 =( GEOMETRIC_REPRESENTATION_CONTEXT ( 3 ) GLOBAL_UNCERTAINTY_ASSIGNED_CONTEXT ( ( #176 ) ) GLOBAL_UNIT_ASSIGNED_CONTEXT ( ( #57, #127, #222 ) ) REPRESENTATION_CONTEXT ( 'NONE', 'WORKASPACE' ) );
#255 = CARTESIAN_POINT ( 'NONE',  ( 56.95591246126100771, -59.52577411535430230, -28.83650986199709720 ) ) ;
#256 = VERTEX_POINT ( 'NONE', #281 ) ;
#257 = SURFACE_STYLE_USAGE ( .BOTH. , #191 ) ;
#258 = CARTESIAN_POINT ( 'NONE',  ( 58.68908977176099029, -56.29928862116034338, -30.56303239802089067 ) ) ;
#259 =( GEOMETRIC_REPRESENTATION_CONTEXT ( 3 ) GLOBAL_UNCERTAINTY_ASSIGNED_CONTEXT ( ( #89 ) ) GLOBAL_UNIT_ASSIGNED_CONTEXT ( ( #359, #391, #389 ) ) REPRESENTATION_CONTEXT ( 'NONE', 'WORKASPACE' ) );
#260 = DIRECTION ( 'NONE',  ( 0.000000000000000000, 0.000000000000000000, 1.000000000000000000 ) ) ;
#261 = SURFACE_STYLE_FILL_AREA ( #288 ) ;
#262 = CARTESIAN_POINT ( 'NONE',  ( 59.80907178597421847, -57.18005737506056363, -27.15115191598658839 ) ) ;
#263 = CARTESIAN_POINT ( 'NONE',  ( 59.35991659518139585, -61.01087345661909467, -30.00902268190460376 ) ) ;
#264 = CONICAL_SURFACE ( 'NONE', #101, 1.550577410259278421, 0.1097130070845293015 ) ;
#265 = CARTESIAN_POINT ( 'NONE',  ( 57.77073201403344882, -58.20677404118564624, -28.83650986199714339 ) ) ;
#266 = DIRECTION ( 'NONE',  ( -0.7857931185359475768, 0.4854311067413797920, 0.3832568531277548152 ) ) ;
#267 = CARTESIAN_POINT ( 'NONE',  ( 57.06633996033713174, -62.48341182436268326, -26.05738315864054755 ) ) ;
#268 = EDGE_LOOP ( 'NONE', ( #402, #66, #311, #80 ) ) ;
#269 = VECTOR ( 'NONE', #32, 1000.000000000000114 ) ;
#270 = VECTOR ( 'NONE', #423, 1000.000000000000114 ) ;
#271 = LINE ( 'NONE', #371, #81 ) ;
#272 = ADVANCED_BREP_SHAPE_REPRESENTATION ( '\X2\77ee94a273e056fa4ef6\X0\x3', ( #20, #324 ), #254 ) ;
#273 = EDGE_CURVE ( 'NONE', #121, #307, #271, .T. ) ;
#274 = CARTESIAN_POINT ( 'NONE',  ( 59.35838052785090468, -61.00992455899189792, -30.00827347070019968 ) ) ;
#275 = ORIENTED_EDGE ( 'NONE', *, *, #92, .T. ) ;
#276 = DIRECTION ( 'NONE',  ( 0.7857949509888779716, -0.4854291543077999815, -0.3832555689724559955 ) ) ;
#277 = VERTEX_POINT ( 'NONE', #302 ) ;
#278 = EDGE_CURVE ( 'NONE', #38, #277, #374, .T. ) ;
#279 = DIRECTION ( 'NONE',  ( 0.5255622300529084745, 0.8507551600441889406, 0.000000000000000000 ) ) ;
#280 = ORIENTED_EDGE ( 'NONE', *, *, #216, .T. ) ;
#281 = CARTESIAN_POINT ( 'NONE',  ( 56.21521911170759722, -58.16250583025411913, -29.62240836285086942 ) ) ;
#282 = ORIENTED_EDGE ( 'NONE', *, *, #72, .F. ) ;
#283 = DIRECTION ( 'NONE',  ( 0.000000000000000000, 0.09190680243253744608, -0.9957676132846591255 ) ) ;
#284 = VERTEX_POINT ( 'NONE', #145 ) ;
#285 = AXIS2_PLACEMENT_3D ( 'NONE', #286, #187, #291 ) ;
#286 = CARTESIAN_POINT ( 'NONE',  ( 56.69703435363839361, -59.36585247985200198, -28.71024834544450144 ) ) ;
#287 = AXIS2_PLACEMENT_3D ( 'NONE', #308, #240, #212 ) ;
#288 = FILL_AREA_STYLE ('',( #21 ) ) ;
#289 = DIRECTION ( 'NONE',  ( -0.3260577808476490813, 0.2014252690654688427, -0.9236418053177377629 ) ) ;
#290 = CARTESIAN_POINT ( 'NONE',  ( 57.95882443378061311, -56.69791384875677664, -31.55540141512839369 ) ) ;
#291 = DIRECTION ( 'NONE',  ( 0.5281035770247517469, 0.8491799643972189893, 0.000000000000000000 ) ) ;
#292 = DIRECTION ( 'NONE',  ( 0.5255613744444167512, 0.8507556886037831445, 6.308835542793884409E-07 ) ) ;
#293 = CIRCLE ( 'NONE', #398, 4.000000014219510902 ) ;
#294 = CARTESIAN_POINT ( 'NONE',  ( 59.70423249128775467, -56.64424549287524258, -28.04476092180101077 ) ) ;
#295 = DIRECTION ( 'NONE',  ( 0.7857938262876820179, -0.4854303616368789709, -0.3832563457651460004 ) ) ;
#296 = AXIS2_PLACEMENT_3D ( 'NONE', #52, #163, #25 ) ;
#297 = FACE_OUTER_BOUND ( 'NONE', #47, .T. ) ;
#298 = EDGE_LOOP ( 'NONE', ( #9, #78 ) ) ;
#299 = ADVANCED_FACE ( 'NONE', ( #310, #77 ), #375, .T. ) ;
#300 = DIRECTION ( 'NONE',  ( 0.7857931116106526837, -0.4854311052614387334, -0.3832568692012008338 ) ) ;
#301 = DIRECTION ( 'NONE',  ( -0.3260577808476490813, 0.2014252690654688427, -0.9236418053177377629 ) ) ;
#302 = CARTESIAN_POINT ( 'NONE',  ( 54.63852916190853648, -61.62048441768905604, -28.47525301221613958 ) ) ;
#303 = AXIS2_PLACEMENT_3D ( 'NONE', #322, #131, #156 ) ;
#304 = VECTOR ( 'NONE', #45, 1000.000000000000000 ) ;
#305 = MECHANICAL_DESIGN_GEOMETRIC_PRESENTATION_REPRESENTATION (  '', ( #421 ), #259 ) ;
#306 = DIRECTION ( 'NONE',  ( -0.5255596611909375548, -0.8507567469781636138, 0.000000000000000000 ) ) ;
#307 = VERTEX_POINT ( 'NONE', #172 ) ;
#308 = CARTESIAN_POINT ( 'NONE',  ( 56.95453633593109544, -59.52492400636059955, -28.83583868474460132 ) ) ;
#309 = ORIENTED_EDGE ( 'NONE', *, *, #422, .F. ) ;
#310 = FACE_BOUND ( 'NONE', #250, .T. ) ;
#311 = ORIENTED_EDGE ( 'NONE', *, *, #142, .F. ) ;
#312 = CARTESIAN_POINT ( 'NONE',  ( 56.95591246126100771, -59.52577411535430230, -28.83650986199709720 ) ) ;
#313 = EDGE_LOOP ( 'NONE', ( #170, #196, #183, #150, #192 ) ) ;
#314 = ADVANCED_FACE ( 'NONE', ( #120 ), #87, .T. ) ;
#315 = VERTEX_POINT ( 'NONE', #210 ) ;
#316 = FACE_OUTER_BOUND ( 'NONE', #205, .T. ) ;
#317 = VERTEX_POINT ( 'NONE', #345 ) ;
#318 = CIRCLE ( 'NONE', #55, 1.550384500450595171 ) ;
#319 = CYLINDRICAL_SURFACE ( 'NONE', #303, 4.000000014219449618 ) ;
#320 = EDGE_CURVE ( 'NONE', #54, #114, #73, .T. ) ;
#321 = CARTESIAN_POINT ( 'NONE',  ( 54.84136151932079883, -62.21477128758319708, -30.95952349038389784 ) ) ;
#322 = CARTESIAN_POINT ( 'NONE',  ( 59.35838052785090468, -61.00992455899189792, -30.00827347070019968 ) ) ;
#323 = DIRECTION ( 'NONE',  ( 0.7857931185359472437, -0.4854311067413802361, -0.3832568531277551482 ) ) ;
#324 = AXIS2_PLACEMENT_3D ( 'NONE', #387, #260, #413 ) ;
#325 = CARTESIAN_POINT ( 'NONE',  ( 57.31532593376410034, -59.74780818995800047, -29.01180950446419970 ) ) ;
#326 = PRODUCT_DEFINITION_SHAPE ( 'NONE', 'NONE',  #56 ) ;
#327 = CIRCLE ( 'NONE', #144, 1.461596071566908961 ) ;
#328 = CARTESIAN_POINT ( 'NONE',  ( 57.31531935119270571, -59.74780422720129280, -29.01180607752090168 ) ) ;
#329 = EDGE_CURVE ( 'NONE', #114, #317, #184, .T. ) ;
#330 = FACE_OUTER_BOUND ( 'NONE', #69, .T. ) ;
#331 = ORIENTED_EDGE ( 'NONE', *, *, #320, .T. ) ;
#332 = CIRCLE ( 'NONE', #44, 1.550384500450595171 ) ;
#333 = CARTESIAN_POINT ( 'NONE',  ( 59.35838116570830181, -61.00992495303449914, -30.00827378180410321 ) ) ;
#334 = CONICAL_SURFACE ( 'NONE', #287, 1.550577410259278421, 0.1097130070845293015 ) ;
#335 = CIRCLE ( 'NONE', #136, 1.461596071566908961 ) ;
#336 = CYLINDRICAL_SURFACE ( 'NONE', #124, 1.500000242002742734 ) ;
#337 = ADVANCED_FACE ( 'NONE', ( #115, #11 ), #401, .T. ) ;
#338 = B_SPLINE_CURVE_WITH_KNOTS ( 'NONE', 3,
 ( #23, #412, #252, #383, #160, #224, #91, #218, #354, #358, #26, #162, #290, #129, #258, #98, #227, #229 ),
 .UNSPECIFIED., .F., .F.,
 ( 4, 2, 2, 2, 2, 2, 2, 2, 4 ),
 ( 0.000000000000000000, 0.05644102473572892159, 0.1128820494714578432, 0.1693230742071867578, 0.2257640989429156864, 0.2822051236786445871, 0.3386461484143735157, 0.3950871731501027218, 0.4515281978858319833 ),
 .UNSPECIFIED. ) ;
#339 = DIRECTION ( 'NONE',  ( 0.5255621005292313574, 0.8507552400586776420, 6.317292066290560704E-08 ) ) ;
#340 = ORIENTED_EDGE ( 'NONE', *, *, #142, .T. ) ;
#341 = CARTESIAN_POINT ( 'NONE',  ( 56.13961539754490104, -60.84408819985060290, -28.83583868474460132 ) ) ;
#342 = AXIS2_PLACEMENT_3D ( 'NONE', #27, #251, #289 ) ;
#343 = ORIENTED_EDGE ( 'NONE', *, *, #76, .T. ) ;
#344 = CIRCLE ( 'NONE', #207, 1.550384500450595171 ) ;
#345 = CARTESIAN_POINT ( 'NONE',  ( 57.32121814012400307, -58.27322690160522001, -29.67398647725735827 ) ) ;
#346 = ORIENTED_EDGE ( 'NONE', *, *, #418, .T. ) ;
#347 = CARTESIAN_POINT ( 'NONE',  ( 59.35838115565920248, -61.00992495522780246, -30.00827379962980146 ) ) ;
#348 = ORIENTED_EDGE ( 'NONE', *, *, #329, .T. ) ;
#349 = DIRECTION ( 'NONE',  ( 0.7857949509888779716, -0.4854291543077999815, -0.3832555689724559955 ) ) ;
#350 = ORIENTED_EDGE ( 'NONE', *, *, #107, .T. ) ;
#351 = CARTESIAN_POINT ( 'NONE',  ( 56.95453633593109544, -59.52492400636059955, -28.83583868474460132 ) ) ;
#352 = ORIENTED_EDGE ( 'NONE', *, *, #278, .T. ) ;
#353 = EDGE_CURVE ( 'NONE', #315, #114, #332, .T. ) ;
#354 = CARTESIAN_POINT ( 'NONE',  ( 56.38084571313881810, -58.36910663468916027, -32.67401268885473797 ) ) ;
#355 = DIRECTION ( 'NONE',  ( -0.5255596611909375548, -0.8507567469781636138, 0.000000000000000000 ) ) ;
#356 = CARTESIAN_POINT ( 'NONE',  ( 54.84136137957663237, -62.67355837886533010, -30.37842631747722422 ) ) ;
#357 = ADVANCED_FACE ( 'NONE', ( #226 ), #319, .T. ) ;
#358 = CARTESIAN_POINT ( 'NONE',  ( 56.89362825989224604, -57.71135071050682797, -32.45576306181244775 ) ) ;
#359 =( LENGTH_UNIT ( ) NAMED_UNIT ( * ) SI_UNIT ( .MILLI., .METRE. ) );
#360 = DIRECTION ( 'NONE',  ( 0.5255621005292313574, 0.8507552400586776420, 6.317292066290560704E-08 ) ) ;
#361 = LINE ( 'NONE', #197, #217 ) ;
#362 = CARTESIAN_POINT ( 'NONE',  ( 60.14825984300050976, -59.73474037201299325, -30.00902268190460376 ) ) ;
#363 = CARTESIAN_POINT ( 'NONE',  ( 55.38379426834607955, -63.25629070071590832, -28.52818826545274433 ) ) ;
#364 = VERTEX_POINT ( 'NONE', #386 ) ;
#365 = LINE ( 'NONE', #106, #270 ) ;
#366 = DIRECTION ( 'NONE',  ( -0.5281035770247517469, -0.8491799643972189893, 0.000000000000000000 ) ) ;
#367 = ORIENTED_EDGE ( 'NONE', *, *, #171, .F. ) ;
#368 = FACE_OUTER_BOUND ( 'NONE', #213, .T. ) ;
#369 = VERTEX_POINT ( 'NONE', #125 ) ;
#370 = AXIS2_PLACEMENT_3D ( 'NONE', #95, #159, #283 ) ;
#371 = CARTESIAN_POINT ( 'NONE',  ( 57.25613160016606429, -64.41294521126593509, -30.00827347070019968 ) ) ;
#372 = EDGE_LOOP ( 'NONE', ( #14, #241 ) ) ;
#373 = ADVANCED_FACE ( 'NONE', ( #220 ), #53, .T. ) ;
#374 = CIRCLE ( 'NONE', #117, 3.000009912716181226 ) ;
#375 = PLANE ( 'NONE',  #151 ) ;
#376 = ORIENTED_EDGE ( 'NONE', *, *, #107, .F. ) ;
#377 = CARTESIAN_POINT ( 'NONE',  ( 61.46062945553574508, -57.60690390671787497, -30.00827347070019968 ) ) ;
#378 = ORIENTED_EDGE ( 'NONE', *, *, #329, .F. ) ;
#379 = CARTESIAN_POINT ( 'NONE',  ( 59.41757727876514394, -56.34478166444858260, -29.01180950446419970 ) ) ;
#380 = EDGE_LOOP ( 'NONE', ( #153, #146 ) ) ;
#381 = CARTESIAN_POINT ( 'NONE',  ( 61.46062957529847637, -57.60690398070246232, -30.00827352911239032 ) ) ;
#382 = CIRCLE ( 'NONE', #253, 4.000000014219510902 ) ;
#383 = CARTESIAN_POINT ( 'NONE',  ( 55.05421876126581537, -60.96180679333809138, -32.11009995772150916 ) ) ;
#384 = PRODUCT_CONTEXT ( 'NONE', #70, 'mechanical' ) ;
#385 = CARTESIAN_POINT ( 'NONE',  ( 57.79190724902419163, -56.51593306176430787, -28.47525086716157361 ) ) ;
#386 = CARTESIAN_POINT ( 'NONE',  ( 54.84136151932079883, -62.21477128758319708, -30.95952349038389784 ) ) ;
#387 = CARTESIAN_POINT ( 'NONE',  ( 0.000000000000000000, 0.000000000000000000, 0.000000000000000000 ) ) ;
#388 = AXIS2_PLACEMENT_3D ( 'NONE', #396, #168, #35 ) ;
#389 =( NAMED_UNIT ( * ) SI_UNIT ( $, .STERADIAN. ) SOLID_ANGLE_UNIT ( ) );
#390 = PRODUCT_RELATED_PRODUCT_CATEGORY ( 'part', '', ( #103 ) ) ;
#391 =( NAMED_UNIT ( * ) PLANE_ANGLE_UNIT ( ) SI_UNIT ( $, .RADIAN. ) );
#392 = CARTESIAN_POINT ( 'NONE',  ( 56.52697610337362022, -61.02393731180737291, -29.01180607752087681 ) ) ;
#393 = CARTESIAN_POINT ( 'NONE',  ( 59.51367160984928262, -58.73798909092320031, -25.78354356491147925 ) ) ;
#394 = CIRCLE ( 'NONE', #82, 1.500000242002752282 ) ;
#395 = CARTESIAN_POINT ( 'NONE',  ( 59.65020031077955309, -58.30078148467309518, -26.05738320684806553 ) ) ;
#396 = CARTESIAN_POINT ( 'NONE',  ( 59.35991659518139585, -61.01087345661909467, -30.00902268190460376 ) ) ;
#397 = DIRECTION ( 'NONE',  ( 0.000000000000000000, 0.09190680243253744608, -0.9957676132846591255 ) ) ;
#398 = AXIS2_PLACEMENT_3D ( 'NONE', #61, #323, #360 ) ;
#399 = DIRECTION ( 'NONE',  ( 0.8481729996634361779, -0.5274773473677385471, -0.04868480929225266207 ) ) ;
#400 = ORIENTED_EDGE ( 'NONE', *, *, #193, .F. ) ;
#401 = PLANE ( 'NONE',  #417 ) ;
#402 = ORIENTED_EDGE ( 'NONE', *, *, #67, .F. ) ;
#403 = ADVANCED_FACE ( 'NONE', ( #316 ), #22, .F. ) ;
#404 = EDGE_CURVE ( 'NONE', #43, #211, #228, .T. ) ;
#405 = DIRECTION ( 'NONE',  ( -0.7857938262876821289, 0.4854303616368790264, 0.3832563457651457783 ) ) ;
#406 = EDGE_LOOP ( 'NONE', ( #110, #139, #3, #86 ) ) ;
#407 = PRODUCT_DEFINITION_CONTEXT ( 'detailed design', #248, 'design' ) ;
#408 = DIRECTION ( 'NONE',  ( -0.5255596611909375548, -0.8507567469781636138, 0.000000000000000000 ) ) ;
#409 = ORIENTED_EDGE ( 'NONE', *, *, #92, .F. ) ;
#410 = DIRECTION ( 'NONE',  ( 0.5255613744444167512, 0.8507556886037831445, 6.308835542793884409E-07 ) ) ;
#411 = VERTEX_POINT ( 'NONE', #381 ) ;
#412 = CARTESIAN_POINT ( 'NONE',  ( 54.84136158907778480, -61.94766327562980734, -31.29784099494035132 ) ) ;
#413 = DIRECTION ( 'NONE',  ( 1.000000000000000000, 0.000000000000000000, 0.000000000000000000 ) ) ;
#414 = DIRECTION ( 'NONE',  ( 0.7857949509888779716, -0.4854291543077999815, -0.3832555689724559955 ) ) ;
#415 = PRESENTATION_STYLE_ASSIGNMENT (( #257 ) ) ;
#416 = DIRECTION ( 'NONE',  ( 0.7857932009283059571, -0.4854310717713030132, -0.3832567284912439809 ) ) ;
#417 = AXIS2_PLACEMENT_3D ( 'NONE', #347, #113, #242 ) ;
#418 = EDGE_CURVE ( 'NONE', #116, #315, #318, .T. ) ;
#419 = AXIS2_PLACEMENT_3D ( 'NONE', #83, #276, #306 ) ;
#420 = ORIENTED_EDGE ( 'NONE', *, *, #273, .F. ) ;
#421 = STYLED_ITEM ( 'NONE', ( #415 ), #20 ) ;
#422 = EDGE_CURVE ( 'NONE', #317, #186, #46, .T. ) ;
#423 = DIRECTION ( 'NONE',  ( 0.7857931116106525726, -0.4854311052614386779, -0.3832568692012008338 ) ) ;
ENDSEC;
END-ISO-10303-21;
